<svg width="337" height="300" viewBox="0 0 337 300" fill="none" xmlns="http://www.w3.org/2000/svg">
<path fill-rule="evenodd" clip-rule="evenodd" d="M168.025 300C260.823 300 336.05 224.773 336.05 131.975C336.05 126.402 335.779 120.892 335.249 115.458H297.843C298.429 120.48 298.73 125.59 298.73 130.77C298.73 202.956 240.212 261.475 168.025 261.475C95.8388 261.475 37.3202 202.956 37.3202 130.77C37.3202 125.59 37.6215 120.48 38.2076 115.458H0.801534C0.27134 120.892 0 126.402 0 131.975C0 224.773 75.2275 300 168.025 300ZM279.89 68.9731C273.316 74.1577 265.015 77.2516 255.992 77.2516C234.66 77.2516 217.367 59.9582 217.367 38.6258C217.367 27.6078 221.98 17.6673 229.38 10.6305C236.308 4.0429 245.678 -7.19502e-07 255.992 -7.19502e-07C277.325 -7.19502e-07 294.618 17.2934 294.618 38.6258C294.618 50.9353 288.86 61.8999 279.89 68.9731ZM270.828 51.9224C267.181 55.9895 261.885 58.5483 255.992 58.5483C244.989 58.5483 236.07 49.6287 236.07 38.6258C236.07 31.7077 239.596 25.6132 244.949 22.0415C248.11 19.9326 251.907 18.7033 255.992 18.7033C266.995 18.7033 275.915 27.6229 275.915 38.6258C275.915 43.7355 273.991 48.3959 270.828 51.9224Z" fill="white"/>
</svg>
