<svg width="1803" height="300" viewBox="0 0 1803 300" fill="none" xmlns="http://www.w3.org/2000/svg">
<path d="M38.207 115.458C37.621 120.48 37.3203 125.59 37.3203 130.77C37.3203 202.956 95.839 261.475 168.025 261.475C240.212 261.474 298.73 202.956 298.73 130.77C298.73 125.59 298.429 120.48 297.843 115.458H335.249C335.779 120.892 336.05 126.402 336.05 131.975C336.05 224.772 260.823 300 168.025 300C75.2276 300 0 224.772 0 131.975C1.25241e-05 126.402 0.271582 120.892 0.801758 115.458H38.207Z" fill="white"/>
<path d="M636.439 77.1914C673.695 77.1914 704.579 80.6224 729.09 87.4854C753.6 94.1522 772.13 104.055 784.68 117.192C797.229 130.33 803.993 146.311 804.974 165.135H728.501C726.148 158.86 721.834 153.37 715.56 148.664C709.285 143.762 699.873 139.939 687.323 137.193C674.774 134.448 657.813 133.075 636.439 133.075C611.341 133.075 590.948 134.644 575.262 137.781C559.575 140.723 548.104 145.527 540.849 152.193C533.594 158.86 529.966 167.684 529.966 178.665C529.966 188.665 533.594 196.803 540.849 203.077C548.104 209.352 559.575 213.96 575.262 216.901C590.948 219.843 611.341 221.313 636.439 221.313C657.813 221.313 674.676 220.038 687.029 217.489C699.579 214.94 708.991 211.509 715.266 207.195C721.54 202.685 725.854 197.881 728.207 192.783H804.68C803.699 211.411 796.934 227 784.385 239.549C771.835 252.098 753.305 261.51 728.795 267.785C704.481 274.06 673.695 277.197 636.439 277.197C608.007 277.197 582.516 275.629 559.967 272.491C537.417 269.55 518.201 264.451 502.318 257.196C486.436 249.745 474.278 239.647 465.847 226.901C457.415 214.156 453.199 198.077 453.199 178.665C453.199 159.253 457.415 143.075 465.847 130.134C474.278 116.996 486.436 106.604 502.318 98.957C518.201 91.1137 537.417 85.5248 559.967 82.1914C582.516 78.858 608.007 77.1914 636.439 77.1914Z" fill="white"/>
<path fill-rule="evenodd" clip-rule="evenodd" d="M1664.4 122.781C1695.38 122.781 1721.07 125.428 1741.46 130.723C1762.05 135.821 1777.44 144.056 1787.64 155.429C1797.84 166.606 1802.94 181.312 1802.94 199.548C1802.94 217.784 1797.84 232.49 1787.64 243.667C1777.44 254.844 1762.05 262.981 1741.46 268.079C1721.07 273.177 1695.38 275.727 1664.4 275.727C1633.22 275.727 1607.24 273.177 1586.46 268.079C1565.87 262.981 1550.38 254.844 1539.99 243.667C1529.79 232.49 1524.69 217.784 1524.69 199.548C1524.69 181.312 1529.79 166.606 1539.99 155.429C1550.38 144.056 1565.87 135.821 1586.46 130.723C1607.24 125.428 1633.22 122.781 1664.4 122.781ZM1664.4 165.429C1649.89 165.429 1637.54 166.704 1627.34 169.253C1617.34 171.802 1609.69 175.626 1604.4 180.724C1599.3 185.626 1596.75 191.901 1596.75 199.548C1596.75 206.999 1599.3 213.274 1604.4 218.372C1609.5 223.274 1617.05 227 1627.05 229.549C1637.24 231.902 1649.7 233.078 1664.4 233.078C1678.91 233.078 1691.07 231.902 1700.87 229.549C1710.68 227 1718.13 223.274 1723.23 218.372C1728.32 213.274 1730.87 206.999 1730.87 199.548C1730.87 192.097 1728.32 185.822 1723.23 180.724C1718.32 175.626 1710.97 171.802 1701.17 169.253C1691.36 166.704 1679.11 165.429 1664.4 165.429Z" fill="white"/>
<path fill-rule="evenodd" clip-rule="evenodd" d="M1048.73 122.781C1072.26 122.781 1092.56 126.017 1109.62 132.487C1126.87 138.762 1140.11 147.684 1149.32 159.253C1152.66 163.287 1155.41 167.568 1157.56 172.096V127.192H1228.15V271.314H1161.68C1161.67 271.291 1161.28 269.036 1160.5 264.55C1159.91 260.04 1159.23 253.569 1158.44 245.138C1158.05 239.492 1157.79 233.186 1157.66 226.222C1157 227.645 1156.28 229.049 1155.5 230.431C1150.21 239.647 1142.56 247.687 1132.56 254.55C1122.56 261.217 1110.5 266.412 1096.38 270.138C1082.26 273.667 1066.38 275.433 1048.73 275.433C1027.56 275.433 1008.73 272.491 992.261 266.608C975.79 260.53 962.751 251.804 953.143 240.432C943.731 229.059 939.024 215.333 939.024 199.254C939.024 182.391 943.731 168.272 953.143 156.899C962.751 145.527 975.79 136.997 992.261 131.311C1008.73 125.624 1027.56 122.781 1048.73 122.781ZM1075.21 167.782C1055.2 167.782 1039.71 170.429 1028.73 175.724C1017.75 180.822 1012.26 188.665 1012.26 199.254C1012.26 206.117 1014.71 211.901 1019.62 216.607C1024.52 221.313 1031.67 224.842 1041.09 227.195C1050.5 229.548 1061.87 230.726 1075.21 230.726C1090.11 230.726 1103.73 229.843 1116.09 228.078C1128.64 226.117 1138.64 222.882 1146.09 218.372C1153.74 213.862 1157.56 207.489 1157.56 199.254C1157.56 190.822 1153.74 184.352 1146.09 179.842C1138.64 175.332 1128.64 172.194 1116.09 170.43C1103.73 168.665 1090.11 167.782 1075.21 167.782Z" fill="white"/>
<path d="M910.979 271.314H840.389V68.3672H910.979V271.314Z" fill="white"/>
<path d="M1330.35 271.314H1259.76V127.192H1330.35V271.314Z" fill="white"/>
<path d="M1508.38 181.606C1495.63 181.606 1483.96 182.783 1473.37 185.136C1462.79 187.489 1453.76 190.332 1446.31 193.665C1440.62 196.064 1436.01 198.464 1432.49 200.863V271.314H1361.9V127.192H1432.49V177.2C1432.86 176.335 1433.25 175.45 1433.67 174.547C1436.22 168.861 1439.65 163.076 1443.96 157.193C1448.27 151.115 1453.57 145.527 1459.84 140.429C1466.12 135.134 1473.28 130.919 1481.32 127.781C1489.55 124.448 1498.57 122.781 1508.38 122.781V181.606Z" fill="white"/>
<path d="M1332.41 95.7217H1257.7V51.6025H1332.41V95.7217Z" fill="white"/>
<path fill-rule="evenodd" clip-rule="evenodd" d="M255.992 0C277.325 3.70106e-05 294.618 17.2936 294.618 38.626C294.618 50.9354 288.86 61.9005 279.891 68.9736C273.316 74.1583 265.015 77.2519 255.992 77.252C234.66 77.252 217.366 59.9584 217.366 38.626C217.366 27.608 221.98 17.6677 229.38 10.6309C236.308 4.04329 245.678 0 255.992 0ZM255.992 18.7031C251.907 18.7031 248.11 19.9332 244.949 22.042C239.596 25.6136 236.069 31.7079 236.069 38.626C236.069 49.6289 244.989 58.5488 255.992 58.5488C261.885 58.5488 267.181 55.9898 270.828 51.9229C273.991 48.3964 275.914 43.7357 275.914 38.626C275.914 27.6232 266.995 18.7032 255.992 18.7031Z" fill="white"/>
</svg>
