<svg width="1350" height="226" viewBox="0 0 1350 226" fill="none" xmlns="http://www.w3.org/2000/svg">
<path d="M351.481 141.181C350.5 159.809 343.736 175.397 331.186 187.947C318.637 200.496 300.107 209.908 275.596 216.183C251.282 222.458 220.497 225.595 183.241 225.595C154.808 225.595 129.318 224.026 106.768 220.889C84.2182 217.948 65.0019 212.849 49.1191 205.594C33.2363 198.143 21.079 188.045 12.6474 175.299C4.21581 162.554 0 146.475 0 127.063C0 107.65 4.21581 91.4733 12.6474 78.5317C21.079 65.3941 33.2363 55.0016 49.1191 47.3543C65.0019 39.511 84.2182 33.9226 106.768 30.5891C129.318 27.2557 154.808 25.589 183.241 25.589C220.497 25.589 251.38 29.0205 275.89 35.8834C300.401 42.5503 318.931 52.4525 331.48 65.5902C344.03 78.7278 350.795 94.7087 351.775 113.533H275.302C272.949 107.258 268.635 101.768 262.361 97.0617C256.086 92.1596 246.674 88.3359 234.125 85.5907C221.575 82.8456 204.614 81.473 183.241 81.473C158.142 81.473 137.749 83.0417 122.062 86.179C106.376 89.1203 94.9047 93.9243 87.6496 100.591C80.3945 107.258 76.767 116.082 76.767 127.063C76.767 137.063 80.3945 145.2 87.6496 151.475C94.9047 157.75 106.376 162.358 122.062 165.299C137.749 168.24 158.142 169.711 183.241 169.711C204.614 169.711 221.477 168.436 233.83 165.887C246.38 163.338 255.792 159.907 262.066 155.593C268.341 151.083 272.655 146.279 275.008 141.181H351.481Z" fill="white"/>
<path d="M387.19 16.7652H457.78V219.712H387.19V16.7652Z" fill="white"/>
<path d="M595.534 223.83C574.357 223.83 555.533 220.889 539.062 215.006C522.591 208.928 509.552 200.202 499.943 188.829C490.531 177.456 485.825 163.73 485.825 147.651C485.825 130.788 490.531 116.67 499.943 105.297C509.552 93.9243 522.591 85.3947 539.062 79.7082C555.533 74.0218 574.357 71.1786 595.534 71.1786C619.065 71.1786 639.359 74.414 656.419 80.8847C673.674 87.1594 686.91 96.0812 696.126 107.65C705.538 119.023 710.244 132.357 710.244 147.651C710.244 159.024 707.597 169.417 702.302 178.829C697.008 188.045 689.361 196.084 679.36 202.947C669.36 209.614 657.301 214.81 643.183 218.536C629.065 222.065 613.182 223.83 595.534 223.83ZM622.006 179.123C636.908 179.123 650.536 178.241 662.889 176.476C675.439 174.515 685.439 171.28 692.89 166.77C700.538 162.26 704.361 155.887 704.361 147.651C704.361 139.22 700.538 132.749 692.89 128.239C685.439 123.729 675.439 120.592 662.889 118.827C650.536 117.062 636.908 116.18 622.006 116.18C602.005 116.18 586.515 118.827 575.534 124.121C564.553 129.219 559.063 137.063 559.063 147.651C559.063 154.514 561.514 160.299 566.416 165.005C571.318 169.711 578.475 173.24 587.887 175.593C597.299 177.946 608.672 179.123 622.006 179.123ZM704.361 75.5905H774.951V219.712H708.479C708.479 219.712 708.087 217.457 707.302 212.947C706.714 208.437 706.028 201.967 705.244 193.535C704.655 185.103 704.361 175.201 704.361 163.828V75.5905Z" fill="white"/>
<path d="M879.212 0V44.1189H804.504V0H879.212ZM806.563 75.5905H877.153V219.712H806.563V75.5905Z" fill="white"/>
<path d="M908.701 75.5905H979.291V219.712H908.701V75.5905ZM1055.18 130.004C1042.43 130.004 1030.76 131.18 1020.17 133.533C1009.59 135.886 1000.57 138.73 993.115 142.063C985.664 145.2 980.075 148.338 976.35 151.475L975.762 137.357C976.35 133.239 977.918 128.435 980.468 122.945C983.017 117.258 986.448 111.474 990.762 105.591C995.076 99.5127 1000.37 93.9243 1006.64 88.8261C1012.92 83.5319 1020.08 79.316 1028.12 76.1787C1036.35 72.8453 1045.37 71.1786 1055.18 71.1786V130.004Z" fill="white"/>
<path d="M1211.2 224.124C1180.03 224.124 1154.04 221.575 1133.26 216.477C1112.67 211.379 1097.18 203.241 1086.79 192.064C1076.59 180.888 1071.49 166.181 1071.49 147.946C1071.49 129.71 1076.59 115.003 1086.79 103.827C1097.18 92.4537 1112.67 84.2182 1133.26 79.12C1154.04 73.8257 1180.03 71.1786 1211.2 71.1786C1242.18 71.1786 1267.87 73.8257 1288.26 79.12C1308.85 84.2182 1324.25 92.4537 1334.44 103.827C1344.64 115.003 1349.74 129.71 1349.74 147.946C1349.74 166.181 1344.64 180.888 1334.44 192.064C1324.25 203.241 1308.85 211.379 1288.26 216.477C1267.87 221.575 1242.18 224.124 1211.2 224.124ZM1211.2 181.476C1225.71 181.476 1237.87 180.299 1247.67 177.946C1257.48 175.397 1264.93 171.672 1270.03 166.77C1275.13 161.671 1277.68 155.397 1277.68 147.946C1277.68 140.494 1275.13 134.22 1270.03 129.121C1265.13 124.023 1257.77 120.2 1247.97 117.651C1238.16 115.101 1225.91 113.827 1211.2 113.827C1196.69 113.827 1184.34 115.101 1174.14 117.651C1164.14 120.2 1156.5 124.023 1151.2 129.121C1146.1 134.024 1143.55 140.298 1143.55 147.946C1143.55 155.397 1146.1 161.671 1151.2 166.77C1156.3 171.672 1163.85 175.397 1173.85 177.946C1184.05 180.299 1196.5 181.476 1211.2 181.476Z" fill="white"/>
</svg>
