<svg width="1450" height="227" viewBox="0 0 1450 227" fill="none" xmlns="http://www.w3.org/2000/svg">
<path d="M352.239 141.485C351.256 160.153 344.477 175.776 331.901 188.352C319.324 200.929 300.754 210.361 276.191 216.649C251.824 222.937 220.972 226.081 183.636 226.081C155.142 226.081 129.596 224.509 106.998 221.365C84.3998 218.418 65.1421 213.308 49.225 206.038C33.308 198.57 21.1245 188.45 12.6747 175.677C4.2249 162.904 0 146.791 0 127.337C0 107.882 4.2249 91.6706 12.6747 78.7011C21.1245 65.5351 33.308 55.1202 49.225 47.4565C65.1421 39.5962 84.3998 33.9957 106.998 30.6551C129.596 27.3145 155.142 25.6442 183.636 25.6442C220.972 25.6442 251.922 29.0831 276.486 35.9608C301.049 42.642 319.619 52.5657 332.195 65.7316C344.772 78.8976 351.551 94.9129 352.534 113.778H275.896C273.538 107.489 269.215 101.987 262.926 97.271C256.638 92.3583 247.206 88.5265 234.629 85.7754C222.053 83.0243 205.055 81.6487 183.636 81.6487C158.483 81.6487 138.046 83.2208 122.326 86.3649C106.605 89.3125 95.1094 94.1269 87.8387 100.808C80.5679 107.489 76.9325 116.332 76.9325 127.337C76.9325 137.358 80.5679 145.514 87.8387 151.802C95.1094 158.09 106.605 162.708 122.326 165.655C138.046 168.603 158.483 170.077 183.636 170.077C205.055 170.077 221.955 168.8 234.335 166.245C246.911 163.69 256.344 160.252 262.632 155.928C268.92 151.409 273.243 146.594 275.601 141.485H352.239Z" fill="#FFFFFF"/>
<path d="M388.025 16.8014H458.767V220.186H388.025V16.8014Z" fill="#FFFFFF"/>
<path d="M596.819 224.313C575.596 224.313 556.731 221.365 540.225 215.47C523.718 209.378 510.651 200.634 501.022 189.236C491.589 177.839 486.873 164.083 486.873 147.97C486.873 131.07 491.589 116.922 501.022 105.524C510.651 94.1269 523.718 85.5788 540.225 79.8801C556.731 74.1814 575.596 71.3321 596.819 71.3321C620.4 71.3321 640.738 74.5744 657.834 81.0592C675.127 87.3474 688.391 96.2885 697.627 107.882C707.059 119.28 711.776 132.642 711.776 147.97C711.776 159.367 709.123 169.782 703.817 179.214C698.511 188.45 690.848 196.507 680.826 203.385C670.804 210.066 658.719 215.274 644.57 219.007C630.422 222.544 614.505 224.313 596.819 224.313ZM623.347 179.509C638.282 179.509 651.939 178.625 664.319 176.856C676.896 174.891 686.917 171.649 694.385 167.129C702.048 162.61 705.88 156.223 705.88 147.97C705.88 139.52 702.048 133.035 694.385 128.516C686.917 123.996 676.896 120.852 664.319 119.083C651.939 117.315 638.282 116.43 623.347 116.43C603.304 116.43 587.78 119.083 576.775 124.389C565.771 129.498 560.269 137.358 560.269 147.97C560.269 154.848 562.725 160.645 567.638 165.361C572.55 170.077 579.723 173.614 589.155 175.972C598.587 178.33 609.985 179.509 623.347 179.509ZM705.88 75.7535H776.623V220.186H710.007C710.007 220.186 709.614 217.926 708.828 213.407C708.238 208.887 707.551 202.402 706.765 193.953C706.175 185.503 705.88 175.579 705.88 164.182V75.7535Z" fill="#FFFFFF"/>
<path d="M881.109 0V44.2141H806.239V0H881.109ZM808.303 75.7535H879.045V220.186H808.303V75.7535Z" fill="#FFFFFF"/>
<path d="M910.661 75.7535H981.403V220.186H910.661V75.7535ZM1057.45 130.284C1044.68 130.284 1032.99 131.463 1022.37 133.821C1011.76 136.179 1002.72 139.029 995.257 142.369C987.79 145.514 982.189 148.658 978.456 151.802L977.866 137.653C978.456 133.527 980.028 128.712 982.582 123.21C985.137 117.511 988.576 111.714 992.899 105.819C997.222 99.7274 1002.53 94.1269 1008.82 89.0177C1015.1 83.712 1022.28 79.4871 1030.33 76.343C1038.59 73.0024 1047.63 71.3321 1057.45 71.3321V130.284Z" fill="#FFFFFF"/>
<path d="M1213.82 224.608C1182.57 224.608 1156.53 222.053 1135.7 216.944C1115.07 211.835 1099.55 203.68 1089.13 192.479C1078.91 181.278 1073.8 166.54 1073.8 148.265C1073.8 129.989 1078.91 115.251 1089.13 104.051C1099.55 92.6531 1115.07 84.3998 1135.7 79.2906C1156.53 73.9849 1182.57 71.3321 1213.82 71.3321C1244.86 71.3321 1270.61 73.9849 1291.04 79.2906C1311.68 84.3998 1327.1 92.6531 1337.32 104.051C1347.54 115.251 1352.65 129.989 1352.65 148.265C1352.65 166.54 1347.54 181.278 1337.32 192.479C1327.1 203.68 1311.68 211.835 1291.04 216.944C1270.61 222.053 1244.86 224.608 1213.82 224.608ZM1213.82 181.867C1228.36 181.867 1240.54 180.688 1250.37 178.33C1260.19 175.776 1267.66 172.042 1272.77 167.129C1277.88 162.02 1280.43 155.732 1280.43 148.265C1280.43 140.797 1277.88 134.509 1272.77 129.4C1267.85 124.291 1260.49 120.459 1250.66 117.904C1240.83 115.35 1228.55 114.072 1213.82 114.072C1199.27 114.072 1186.89 115.35 1176.68 117.904C1166.65 120.459 1158.99 124.291 1153.68 129.4C1148.57 134.313 1146.02 140.601 1146.02 148.265C1146.02 155.732 1148.57 162.02 1153.68 167.129C1158.79 172.042 1166.36 175.776 1176.38 178.33C1186.6 180.688 1199.08 181.867 1213.82 181.867Z" fill="#FFFFFF"/>
<path d="M1449.58 175.677V220.186H1374.71V175.677H1449.58Z" fill="#FF4500"/>
</svg>

